<?xml version="1.0" encoding="UTF-8"?>
<svg xmlns="http://www.w3.org/2000/svg" viewBox="0 0 527.71 528.14">
  <style>
    .mark { fill: #10412E; }
    @media (prefers-color-scheme: dark) {
      .mark { fill: #F6F1E6; }
    }
  </style>
  <path class="mark" d="M263.86,17.27C127.55,17.27,17.05,127.77,17.05,264.08s110.5,246.8,246.81,246.8,246.8-110.5,246.8-246.8S400.16,17.27,263.86,17.27ZM209.35,357.89c-3.83,6.43-8.82,11.61-14.97,15.53-6.16,3.92-13.21,6.67-21.14,8.26-7.93,1.58-16,2.38-24.21,2.38s-16.61-.84-24.63-2.52c-8.02-1.68-15.16-4.48-21.41-8.4-6.25-3.92-11.38-9.09-15.4-15.53-4.01-6.44-6.2-14.51-6.57-24.21h37.78c0,4.29.89,7.97,2.66,11.05,1.77,3.08,4.06,5.6,6.86,7.56,2.8,1.96,6.02,3.41,9.66,4.34,3.64.93,7.41,1.4,11.33,1.4,2.8,0,5.74-.33,8.82-.98,3.08-.65,5.88-1.68,8.4-3.08,2.52-1.4,4.62-3.26,6.29-5.6,1.68-2.33,2.52-5.27,2.52-8.82,0-5.97-3.96-10.44-11.89-13.43-7.94-2.98-18.99-5.97-33.17-8.96-5.79-1.3-11.43-2.84-16.93-4.62-5.51-1.77-10.41-4.1-14.7-6.99-4.29-2.9-7.74-6.53-10.36-10.92-2.61-4.38-3.91-9.75-3.91-16.09,0-9.33,1.82-16.98,5.45-22.96,3.64-5.97,8.45-10.68,14.42-14.13,5.97-3.45,12.69-5.88,20.15-7.28,7.46-1.4,15.12-2.1,22.95-2.1s15.44.75,22.82,2.24c7.36,1.5,13.94,4.02,19.73,7.56,5.78,3.54,10.59,8.26,14.41,14.13,3.83,5.88,6.11,13.3,6.86,22.26h-37.79c-.56-7.65-3.45-12.83-8.67-15.54-5.23-2.7-11.39-4.06-18.48-4.06-2.23,0-4.66.14-7.27.42-2.62.28-5,.89-7.14,1.82-2.15.94-3.97,2.29-5.46,4.06-1.49,1.78-2.24,4.16-2.24,7.14,0,3.54,1.31,6.44,3.92,8.67,2.61,2.24,6.02,4.06,10.22,5.46,4.2,1.4,9,2.66,14.41,3.78,5.41,1.12,10.92,2.34,16.52,3.64,5.78,1.31,11.42,2.9,16.93,4.76,5.5,1.87,10.4,4.34,14.69,7.42,4.29,3.08,7.75,6.9,10.36,11.47,2.61,4.58,3.92,10.22,3.92,16.94,0,9.51-1.92,17.49-5.74,23.93ZM401.08,380.42h-40.87l-25.75-97.13h-.56l-24.63,97.13h-41.15l-45.9-144.71h41.99l26.59,98.25h.56l24.07-98.25h38.62l24.63,97.97h.56l26.59-97.97h40.87l-45.62,144.71ZM87.75,207.36l358.95-63.27v63.27H87.75Z"/>
</svg>
